# xmcd
#
# Track frame offsets:
#	150
#	22710
#	36285
#	51262
#	74865
#	90977
#	105335
#	114857
#	129750
#	147702
#	178462
#	205852
#
# Disc length: 2953 seconds
#
# Revision: 1
# Processed by: cddbd v1.5.2PL0 Copyright (c) Steve Scherf et al.
# Submitted via: audiograbber 1.83.01
#
DISCID=a50b870c
DTITLE=Blues Casters - Dirt Road
DYEAR=1995
DGENRE=Blues
TTITLE0=I Hated That
TTITLE1=Betty Mae
TTITLE2=You Don't Let Up
TTITLE3=Crying Wolf
TTITLE4=What She Got
TTITLE5=The Other Side
TTITLE6=Sweet Potato Pie (Instrumental)
TTITLE7=Somebody Gotta Go
TTITLE8=Good BLues
TTITLE9=Sea of Tranquility
TTITLE10=Voodoo Man
TTITLE11=Blue Midnights
EXTD=
EXTT0=
EXTT1=
EXTT2=
EXTT3=
EXTT4=
EXTT5=
EXTT6=
EXTT7=
EXTT8=
EXTT9=
EXTT10=
EXTT11=
PLAYORDER=
